<svg width="16" height="16" viewBox="0 0 16 16" fill="none" xmlns="http://www.w3.org/2000/svg">
<rect width="16" height="16" fill="white"/>
<path d="M6.44 8.112C6.808 8.192 7.09067 8.352 7.288 8.592C7.49067 8.82667 7.592 9.13067 7.592 9.504C7.592 9.984 7.41333 10.3547 7.056 10.616C6.704 10.872 6.18133 11 5.488 11H2.912V5.4H5.328C5.952 5.4 6.43467 5.52533 6.776 5.776C7.12267 6.02667 7.296 6.38133 7.296 6.84C7.296 7.14933 7.21867 7.41333 7.064 7.632C6.91467 7.84533 6.70667 8.00533 6.44 8.112ZM3.504 5.888V7.92H5.288C5.74133 7.92 6.09067 7.83467 6.336 7.664C6.58133 7.488 6.704 7.23467 6.704 6.904C6.704 6.57333 6.58133 6.32267 6.336 6.152C6.09067 5.976 5.74133 5.888 5.288 5.888H3.504ZM5.48 10.512C5.98133 10.512 6.36 10.4267 6.616 10.256C6.872 10.0853 7 9.81867 7 9.456C7 8.75733 6.49333 8.408 5.48 8.408H3.504V10.512H5.48ZM12.9833 10.488V11H8.39125V10.592L12.1033 5.912H8.44725V5.4H12.8873V5.808L9.18325 10.488H12.9833Z" fill="black"/>
<rect x="4" y="12.5" width="0.5" height="8" transform="rotate(-90 4 12.5)" fill="#9DFFF3"/>
</svg>
